<svg version="1.1" id="Layer_1" xmlns="http://www.w3.org/2000/svg" xmlns:xlink="http://www.w3.org/1999/xlink" x="0px" y="0px"
	 width="100%" viewBox="0 0 1024 1024" enable-background="new 0 0 1024 1024" xml:space="preserve">
<path fill="#000000" opacity="1.000000" stroke="none" 
	d="
M803.101318,865.061707 
	C773.891418,851.876587 747.236084,835.224670 722.519531,815.499634 
	C697.457092,795.498535 674.765198,773.013062 653.670532,748.880615 
	C614.115356,703.629333 584.204956,652.111938 556.328674,599.272156 
	C551.043701,589.254395 546.018555,579.099609 540.850830,569.019653 
	C540.029907,567.418335 539.425171,565.443542 537.203796,565.318176 
	C534.674438,565.175476 533.971680,567.319336 533.055603,569.057800 
	C512.388611,608.278748 490.653076,646.862671 465.269257,683.286621 
	C449.347382,706.133423 432.136963,727.921143 413.354980,748.515259 
	C383.300171,781.469727 349.421265,809.863831 311.784241,833.640747 
	C273.718506,857.688477 232.843277,874.849182 188.126648,882.467712 
	C164.487885,886.495056 140.774734,886.632507 116.988197,886.229126 
	C104.395180,886.015564 98.136131,879.944824 96.493690,867.649841 
	C95.917122,863.333862 95.698219,859.028503 95.697914,854.695251 
	C95.695518,819.864990 95.124336,785.022888 95.837364,750.207214 
	C96.890457,698.785645 111.061134,651.461060 142.790497,610.220520 
	C167.547150,578.042786 198.699661,554.347473 236.789062,539.936951 
	C244.892975,536.870911 252.903275,533.526184 259.820770,528.124512 
	C272.381165,518.316467 275.650604,503.665070 267.686066,492.028290 
	C263.458435,485.851501 257.570923,481.503448 250.859909,478.241211 
	C238.270721,472.121613 224.858963,467.974426 212.268082,461.806549 
	C177.528275,444.788574 150.377594,419.426453 129.111252,387.397461 
	C108.831924,356.855042 97.505608,323.099365 92.603165,286.959351 
	C89.661171,265.271454 89.749413,243.481293 89.785362,221.674545 
	C89.829865,194.679703 89.684448,167.684570 89.726433,140.689728 
	C89.758102,120.327995 95.503929,114.959648 116.024284,114.650528 
	C176.849533,113.734268 234.565536,127.058998 289.450500,152.775604 
	C326.201752,169.995590 359.222900,192.987076 389.601257,219.854279 
	C436.072906,260.954712 473.777649,309.229034 506.211975,361.848328 
	C511.987427,371.218048 513.389465,371.257996 519.120605,361.948639 
	C537.314514,332.395325 557.309692,304.132812 579.602661,277.527924 
	C604.178772,248.198273 631.528503,221.738556 661.597656,198.031540 
	C711.885498,158.383835 768.593689,132.996597 831.359985,120.942825 
	C858.915222,115.651070 886.770691,113.910812 914.790283,114.754387 
	C926.192932,115.097687 933.760376,120.339149 935.139771,128.838531 
	C935.830017,133.091827 936.211975,137.442215 936.225952,141.750351 
	C936.299316,164.403778 936.050964,187.051392 935.563538,209.704956 
	C935.259644,223.829361 936.595093,238.003189 936.224121,252.164200 
	C935.342957,285.804565 930.860535,318.779327 917.402405,350.004242 
	C896.167603,399.272522 862.405945,436.821503 813.985107,460.750092 
	C803.063232,466.147461 791.662476,470.357483 780.495178,475.143616 
	C773.359131,478.202026 767.013000,482.295319 761.644470,487.977600 
	C751.926941,498.263153 751.631714,512.538940 760.976807,523.177307 
	C768.154785,531.348694 777.625793,535.937317 787.446716,539.650635 
	C823.497437,553.281616 853.959351,574.803894 878.304260,604.559448 
	C903.472961,635.321716 919.266602,670.613220 926.247986,709.763123 
	C929.024658,725.334351 930.128540,741.102051 930.224792,756.891235 
	C930.424805,789.720459 930.247742,822.551819 930.339417,855.382019 
	C930.353027,860.243774 929.859192,865.036560 929.173889,869.801086 
	C927.779297,879.497986 919.051819,885.887512 907.772034,886.335083 
	C873.719543,887.686340 841.372864,880.230408 809.952148,867.796326 
	C807.784119,866.938354 805.619812,866.070923 803.101318,865.061707 
M469.401154,559.928772 
	C470.136353,558.622803 470.867584,557.314636 471.607330,556.011230 
	C482.131561,537.469238 492.684174,518.944763 502.482513,499.999939 
	C504.386993,496.317688 504.907074,493.168884 502.678894,489.315430 
	C499.351196,483.560455 496.641785,477.448425 493.659454,471.493256 
	C473.207733,430.654877 451.676971,390.464233 424.978180,353.230377 
	C399.596863,317.833801 370.683990,285.800262 336.705994,258.448273 
	C295.275543,225.097137 249.578644,200.273239 197.261658,188.666855 
	C185.735657,186.109833 174.153763,183.916214 162.338242,183.327271 
	C157.337555,183.078003 154.260147,185.401917 153.114609,190.515961 
	C151.251343,198.834183 150.643646,207.327667 150.408493,215.735977 
	C149.822510,236.689407 149.988251,257.647217 153.217834,278.472595 
	C156.346741,298.648651 161.385742,318.261963 170.527100,336.566528 
	C188.446381,372.447754 216.499847,397.354370 253.840134,411.720215 
	C270.894196,418.281403 287.346649,425.842163 301.198608,438.001923 
	C326.865540,460.533325 338.869263,488.297058 332.168213,522.616882 
	C327.063263,548.762329 310.877502,567.204651 289.576080,581.854919 
	C276.995789,590.507141 262.961243,596.245728 249.104736,602.389832 
	C223.643036,613.679810 201.800247,629.628479 185.992340,652.954773 
	C165.875229,682.639954 159.194290,716.355835 157.405075,751.339355 
	C156.725006,764.636047 157.054138,778.003235 157.399857,791.325867 
	C157.579987,798.267334 157.868973,805.282043 159.422089,812.118835 
	C160.531509,817.002441 164.115051,819.990051 168.616425,819.507629 
	C174.392944,818.888611 180.182770,818.187927 185.881607,817.082764 
	C226.724945,809.162292 263.810577,792.400635 298.036285,769.026184 
	C339.007263,741.044861 371.694550,704.792603 401.238281,665.422729 
	C426.280792,632.051147 448.125061,596.609314 469.401154,559.928772 
M719.353943,442.858276 
	C729.639648,432.914490 741.302795,425.017731 754.471375,419.406525 
	C763.045715,415.752960 771.795410,412.490906 780.261658,408.606903 
	C823.337769,388.845123 851.595581,355.962708 865.529907,310.856415 
	C875.946533,277.137299 877.007324,242.450714 874.444580,207.583588 
	C874.070984,202.500702 874.302124,197.294388 873.003479,192.231079 
	C871.360840,185.826462 868.742554,183.409164 862.338684,183.313843 
	C856.659119,183.229279 851.108215,184.364609 845.528442,185.239578 
	C811.464844,190.581223 779.443054,201.966995 749.163696,218.251144 
	C701.869873,243.685516 662.384033,278.788208 627.335632,318.943573 
	C599.659058,350.652954 576.845459,385.911713 554.929199,421.800323 
	C548.932007,431.620972 548.875854,439.078979 554.014160,449.410858 
	C579.000977,499.653046 601.798462,550.959290 628.637390,600.316406 
	C653.844238,646.671936 683.567749,689.662659 719.730652,728.127991 
	C757.308838,768.098755 801.208557,798.602844 853.168579,817.004211 
	C862.316467,820.243835 867.054626,817.495667 867.566162,807.792908 
	C868.502014,790.043640 870.130981,772.359863 868.976990,754.478149 
	C867.707397,734.804871 865.322876,715.423828 859.500549,696.596313 
	C849.294128,663.592163 831.038940,636.339233 802.162781,616.557861 
	C788.158569,606.964417 772.834961,600.182068 757.391663,593.495178 
	C741.773010,586.732300 727.838562,577.498291 716.278748,564.875916 
	C698.010559,544.928528 690.110535,521.284058 693.016541,494.599579 
	C695.195496,474.591370 704.851196,457.725250 719.353943,442.858276 
z"/>
</svg>